<svg version="1.1" id="Layer_1" xmlns="http://www.w3.org/2000/svg" xmlns:xlink="http://www.w3.org/1999/xlink" x="0px" y="0px"
	 width="100%" viewBox="0 0 900 500" enable-background="new 0 0 900 500" xml:space="preserve">
<path fill="#FEFEFE" opacity="1.000000" stroke="none" 
	d="
M525.000000,501.000000 
	C350.000000,501.000000 175.500000,501.000000 1.000000,501.000000 
	C1.000000,334.333344 1.000000,167.666672 1.000000,1.000000 
	C301.000000,1.000000 601.000000,1.000000 901.000000,1.000000 
	C901.000000,167.666672 901.000000,334.333344 901.000000,501.000000 
	C775.833313,501.000000 650.666687,501.000000 525.000000,501.000000 
M694.088562,130.764557 
	C694.302124,127.703064 694.515686,124.641579 694.727112,121.611488 
	C668.889282,119.365280 638.467712,139.303009 627.999573,164.838455 
	C615.402527,195.566910 623.758301,228.968521 649.306335,250.011551 
	C672.528809,269.139038 707.406067,270.917236 733.258667,254.291779 
	C757.925476,238.428925 772.911621,204.157715 766.016846,179.342606 
	C742.396973,179.342606 718.771362,179.342606 694.956665,179.342606 
	C694.956665,182.550842 694.956665,185.593994 694.956665,188.933105 
	C715.761719,188.933105 736.201782,188.933105 757.384216,188.933105 
	C756.966797,194.017044 756.921265,198.820236 756.130554,203.497467 
	C751.746948,229.427231 732.529236,249.603622 707.456726,254.861435 
	C681.951660,260.209930 655.446533,249.284241 641.518738,226.766418 
	C629.216736,206.877167 628.242065,185.813904 638.973267,165.012344 
	C650.209961,143.230988 668.906128,132.382431 694.088562,130.764557 
M48.064175,189.523682 
	C59.271790,215.473236 70.479401,241.422791 82.070847,268.261047 
	C103.183014,219.304550 123.840218,171.403061 144.569260,123.334999 
	C134.478333,122.418625 134.481628,122.420044 130.937424,130.637238 
	C117.531349,161.719101 104.133705,192.804611 90.706299,223.877274 
	C88.007965,230.121536 85.193192,236.315491 82.096588,243.288101 
	C80.820084,240.618835 79.915367,238.874649 79.136269,237.076080 
	C63.770321,201.603134 48.419235,166.123779 33.064384,130.646027 
	C29.489143,122.385345 29.487837,122.385002 20.412319,123.148529 
	C20.294577,123.158440 20.189163,123.314888 19.679071,123.718918 
	C29.028013,145.328217 38.430428,167.061127 48.064175,189.523682 
M505.929321,220.518524 
	C516.945618,194.917648 527.961853,169.316772 539.354492,142.841309 
	C557.027527,183.830124 574.231445,223.730820 591.399597,263.548706 
	C594.877380,263.548706 598.106934,263.548706 601.924377,263.548706 
	C581.059021,215.172577 560.383545,167.236603 539.334717,118.435181 
	C518.376831,167.280685 497.732269,215.395798 476.957977,263.813385 
	C478.691772,263.813385 479.893463,263.623505 481.013275,263.846008 
	C486.049469,264.846771 488.219299,262.414368 490.013123,257.888977 
	C494.907104,245.542465 500.374115,233.423096 505.929321,220.518524 
M819.622864,229.500183 
	C819.622864,197.402496 819.622864,165.304810 819.622864,132.762939 
	C840.536926,132.762939 860.950134,132.762939 881.484497,132.762939 
	C881.484497,129.269623 881.484497,126.230476 881.484497,123.197556 
	C857.548523,123.197556 833.949341,123.197556 810.299683,123.197556 
	C810.299683,170.120010 810.299683,216.826538 810.299683,263.563446 
	C834.201721,263.563446 857.785461,263.563446 881.479370,263.563446 
	C881.479370,260.259186 881.479370,257.219879 881.479370,253.822128 
	C860.697754,253.822128 840.254883,253.822128 819.622803,253.822128 
	C819.622803,245.805618 819.622803,238.152893 819.622864,229.500183 
M721.451477,238.952423 
	C736.308960,229.505661 744.938110,216.201080 747.106262,198.476303 
	C729.267029,198.476303 712.038879,198.476303 694.600037,198.476303 
	C694.600037,201.689438 694.600037,204.613205 694.600037,208.070526 
	C708.136475,208.070526 721.473022,208.070526 734.961243,208.070526 
	C729.268433,226.508286 707.892761,239.708313 689.362244,236.660873 
	C665.716003,232.772095 650.819702,215.479172 651.044128,191.858154 
	C651.206055,174.823151 663.363708,152.343231 694.145081,149.707047 
	C694.145081,146.634262 694.145081,143.549164 694.145081,140.472000 
	C673.319275,139.963181 652.557068,154.083145 645.032532,173.690140 
	C636.820618,195.088531 642.812683,218.925461 660.197388,234.016907 
	C676.532837,248.197495 700.741699,250.289642 721.451477,238.952423 
M371.734985,196.499481 
	C371.734985,218.884720 371.734985,241.269943 371.734985,263.445953 
	C395.940216,263.445953 419.378784,263.445953 442.886353,263.445953 
	C442.886353,260.162628 442.886353,257.242920 442.886353,253.826828 
	C422.286346,253.826828 401.915558,253.826828 381.127014,253.826828 
	C381.127014,209.943756 381.127014,166.562820 381.127014,123.281769 
	C377.779053,123.281769 374.868042,123.281769 371.735046,123.281769 
	C371.735046,147.545639 371.735046,171.522537 371.734985,196.499481 
M269.265015,158.500519 
	C269.265015,146.738098 269.265015,134.975693 269.265015,123.265297 
	C265.804413,123.265297 262.887909,123.265297 260.124878,123.265297 
	C260.124878,170.231308 260.124878,216.925110 260.124878,263.428284 
	C283.944763,263.428284 307.373474,263.428284 330.872864,263.428284 
	C330.872864,260.131195 330.872864,257.215973 330.872864,253.867996 
	C310.237579,253.867996 289.845581,253.867996 269.264954,253.867996 
	C269.264954,222.118759 269.264954,190.809662 269.265015,158.500519 
M514.663391,225.019684 
	C509.132294,237.834183 503.601196,250.648682 497.918762,263.813751 
	C499.691864,263.813751 500.720764,263.652008 501.680725,263.840729 
	C506.832825,264.853546 509.222076,262.502136 511.076843,257.746155 
	C515.351135,246.785873 520.306763,236.091660 524.969055,225.282227 
	C529.713501,214.282486 534.437805,203.274002 539.494141,191.517731 
	C548.922119,213.389465 557.973877,234.397598 567.033936,255.402176 
	C570.721802,263.952148 570.730103,263.951355 579.787476,263.777008 
	C580.051086,263.771912 580.310791,263.564301 580.969299,263.279327 
	C567.259338,231.459656 553.558960,199.662109 539.478516,166.982407 
	C530.992493,186.792664 522.958740,205.547256 514.663391,225.019684 
M119.456093,122.988564 
	C117.350998,122.988564 115.245903,122.988564 113.232582,122.988564 
	C102.861824,147.084076 92.676613,170.748505 82.061073,195.412750 
	C81.049843,193.110550 80.533028,191.952194 80.030685,190.787582 
	C71.426918,170.840897 62.813335,150.898438 54.228058,130.943802 
	C50.573189,122.448845 50.600414,122.436287 41.347893,123.137985 
	C41.216171,123.147972 41.093693,123.279892 40.497215,123.632751 
	C54.193325,155.319855 67.916107,187.068665 82.048134,219.764282 
	C96.216553,186.868591 109.869408,155.169907 123.730125,122.988632 
	C122.009918,122.988632 121.184738,122.988632 119.456093,122.988564 
M390.878754,160.499969 
	C390.878754,188.414017 390.878754,216.328064 390.878754,244.329987 
	C408.584808,244.329987 425.665009,244.329987 442.792908,244.329987 
	C442.792908,241.118546 442.792908,238.181778 442.792908,234.836761 
	C428.665680,234.836761 414.745087,234.836761 400.333740,234.836761 
	C400.333740,197.367065 400.333740,160.307495 400.333740,123.286583 
	C396.912079,123.286583 393.994507,123.286583 390.878754,123.286583 
	C390.878754,135.552582 390.878754,147.526260 390.878754,160.499969 
M303.504761,234.855194 
	C298.718567,234.855194 293.932373,234.855194 288.625244,234.855194 
	C288.625244,197.336777 288.625244,160.295914 288.625244,123.246063 
	C285.170654,123.246063 282.255127,123.246063 279.300415,123.246063 
	C279.300415,163.726822 279.300415,203.935013 279.300415,244.390152 
	C296.631165,244.390152 313.703491,244.390152 330.795105,244.390152 
	C330.795105,241.091370 330.795105,238.045471 330.795105,234.855194 
	C321.798676,234.855194 313.151154,234.855194 303.504761,234.855194 
M403.183319,372.651459 
	C411.336090,361.346680 411.137360,348.138062 402.665924,338.259552 
	C395.159271,329.506073 381.243286,326.665161 370.809387,332.000946 
	C360.239380,337.406311 355.204315,346.346100 356.091370,358.057281 
	C356.949005,369.380157 363.313629,377.058502 373.880432,381.117859 
	C383.924591,384.976440 394.483551,382.007233 403.183319,372.651459 
M293.876587,358.499939 
	C293.876587,366.257935 293.876587,374.015930 293.876587,381.719391 
	C298.199097,381.719391 301.939209,381.719391 306.125366,381.719391 
	C306.125366,374.863983 306.125366,368.286926 306.125366,361.848877 
	C313.031952,361.848877 319.476227,361.848877 326.465881,361.848877 
	C326.465881,368.635437 326.465881,375.196960 326.465881,381.875305 
	C330.661652,381.875305 334.303741,381.875305 338.042786,381.875305 
	C338.042786,364.558472 338.042786,347.366943 338.042786,330.286285 
	C334.107452,330.286285 330.530884,330.286285 326.573730,330.286285 
	C326.573730,336.991730 326.573730,343.410400 326.573730,350.001709 
	C319.581787,350.001709 312.988129,350.001709 305.857605,350.001709 
	C305.857605,343.286774 305.857605,336.734283 305.857605,330.283936 
	C301.565338,330.283936 297.817352,330.283936 293.876587,330.283936 
	C293.876587,339.550201 293.876587,348.525085 293.876587,358.499939 
M193.019150,189.500000 
	C193.019150,167.407303 193.019150,145.314606 193.019150,123.182755 
	C189.559494,123.182755 186.629807,123.182755 183.539963,123.182755 
	C183.539963,170.057281 183.539963,216.729340 183.539963,263.579926 
	C186.807861,263.579926 189.711700,263.579926 193.019150,263.579926 
	C193.019150,239.059540 193.019150,214.779770 193.019150,189.500000 
M881.494141,243.820450 
	C881.494141,240.875168 881.494141,237.929886 881.494141,234.413940 
	C867.403320,234.413940 853.369019,234.413940 839.276855,234.413940 
	C839.276855,225.262604 839.276855,216.685425 839.276855,207.592834 
	C853.568542,207.592834 867.614014,207.592834 881.436401,207.592834 
	C881.436401,204.165833 881.436401,201.264648 881.436401,198.592194 
	C863.830139,198.592194 846.619507,198.592194 829.504395,198.592194 
	C829.504395,214.076035 829.504395,229.135757 829.504395,244.104980 
	C846.776367,244.104980 863.713989,244.104980 881.494141,243.820450 
M873.447388,152.139481 
	C876.192383,152.139481 878.937378,152.139481 881.627441,152.139481 
	C881.627441,148.572220 881.627441,145.786301 881.627441,142.787888 
	C864.084656,142.787888 846.742981,142.787888 829.515259,142.787888 
	C829.515259,158.280060 829.515259,173.351913 829.515259,188.381683 
	C847.079773,188.381683 864.299683,188.381683 881.506714,188.381683 
	C881.506714,185.028122 881.506714,182.124161 881.506714,178.906891 
	C867.265930,178.906891 853.340576,178.906891 839.305176,178.906891 
	C839.305176,169.867508 839.305176,161.155426 839.305176,152.139481 
	C850.543579,152.139481 861.501099,152.139481 873.447388,152.139481 
M501.450623,329.990814 
	C493.346802,329.990814 485.242981,329.990814 476.943481,329.990814 
	C476.943481,347.592224 476.943481,364.675140 476.943481,381.692535 
	C487.728760,381.692535 498.297577,381.692535 508.733276,381.692535 
	C508.733276,377.946381 508.733276,374.522827 508.733276,370.689819 
	C501.883331,370.689819 495.300323,370.689819 488.749390,370.689819 
	C488.749390,367.529388 488.749390,364.810486 488.749390,361.616028 
	C494.157318,361.616028 499.227234,361.616028 504.328827,361.616028 
	C504.328827,357.699646 504.328827,354.280243 504.328827,350.348389 
	C498.990448,350.348389 493.910492,350.348389 488.649780,350.348389 
	C488.649780,347.261688 488.649780,344.697266 488.649780,341.648499 
	C495.468414,341.648499 502.054352,341.648499 508.874390,341.648499 
	C508.874390,337.593140 508.874390,334.020325 508.874390,329.990814 
	C506.675842,329.990814 504.556885,329.990814 501.450623,329.990814 
M202.745743,199.499863 
	C202.745743,220.865707 202.745743,242.231567 202.745743,263.516846 
	C206.288361,263.516846 209.042175,263.516846 211.836273,263.516846 
	C211.836273,216.579132 211.836273,169.920731 211.836273,123.318527 
	C208.648178,123.318527 205.750519,123.318527 202.745728,123.318527 
	C202.745728,148.591217 202.745728,173.545532 202.745743,199.499863 
M586.876343,342.727753 
	C590.749512,338.337189 593.845276,341.608459 596.679321,343.721100 
	C599.544006,341.160217 602.228943,338.759979 605.153931,336.145142 
	C599.965332,330.381042 594.088501,328.240570 586.987000,329.599060 
	C580.888794,330.765564 576.570557,334.337067 575.130676,340.326385 
	C573.419800,347.442291 575.775146,353.561890 581.855530,357.771057 
	C584.959656,359.919830 588.751648,361.095306 591.779236,363.326172 
	C593.436157,364.547058 594.148682,367.049744 595.287048,368.974396 
	C592.945923,369.619232 590.347229,371.222046 588.325500,370.678589 
	C585.475159,369.912415 583.051941,367.557007 580.251343,365.755859 
	C577.643921,367.893005 574.841858,370.189758 572.075317,372.457336 
	C575.545105,379.368103 581.667908,381.673218 588.463928,382.614990 
	C596.377380,383.711670 603.403198,379.813171 605.965820,373.241913 
	C608.699951,366.230988 606.375366,358.667511 599.661194,354.002014 
	C596.413757,351.745483 592.609558,350.291382 589.355591,348.042603 
	C587.991760,347.100067 587.401245,345.038635 586.876343,342.727753 
M447.817413,355.503693 
	C447.817413,350.910065 447.817413,346.316406 447.817413,341.386292 
	C452.293274,341.386292 456.067108,341.386292 459.901489,341.386292 
	C459.901489,337.423065 459.901489,333.828186 459.901489,330.245850 
	C447.652679,330.245850 435.638153,330.245850 423.639099,330.245850 
	C423.639099,334.188934 423.639099,337.740509 423.639099,341.618683 
	C427.852905,341.618683 431.634064,341.618683 435.984009,341.618683 
	C435.984009,355.152527 435.984009,368.363037 435.984009,381.574280 
	C440.153900,381.574280 443.745667,381.574280 447.817413,381.574280 
	C447.817413,373.058868 447.817413,364.780396 447.817413,355.503693 
M539.011108,365.410248 
	C539.011108,353.662445 539.011108,341.914673 539.011108,330.215790 
	C534.815430,330.215790 531.217407,330.215790 527.421509,330.215790 
	C527.421509,347.489563 527.421509,364.536163 527.421509,381.796844 
	C538.068176,381.796844 548.483276,381.796844 558.978943,381.796844 
	C558.978943,377.930969 558.978943,374.175476 558.978943,370.094788 
	C552.258240,370.094788 545.824890,370.094788 539.011169,370.094788 
	C539.011169,368.642914 539.011169,367.516144 539.011108,365.410248 
z"/>
<path fill="#090909" opacity="1.000000" stroke="none" 
	d="
M693.661865,130.881653 
	C668.906128,132.382431 650.209961,143.230988 638.973267,165.012344 
	C628.242065,185.813904 629.216736,206.877167 641.518738,226.766418 
	C655.446533,249.284241 681.951660,260.209930 707.456726,254.861435 
	C732.529236,249.603622 751.746948,229.427231 756.130554,203.497467 
	C756.921265,198.820236 756.966797,194.017044 757.384216,188.933105 
	C736.201782,188.933105 715.761719,188.933105 694.956665,188.933105 
	C694.956665,185.593994 694.956665,182.550842 694.956665,179.342606 
	C718.771362,179.342606 742.396973,179.342606 766.016846,179.342606 
	C772.911621,204.157715 757.925476,238.428925 733.258667,254.291779 
	C707.406067,270.917236 672.528809,269.139038 649.306335,250.011551 
	C623.758301,228.968521 615.402527,195.566910 627.999573,164.838455 
	C638.467712,139.303009 668.889282,119.365280 694.727112,121.611488 
	C694.515686,124.641579 694.302124,127.703064 693.661865,130.881653 
z"/>
<path fill="#060606" opacity="1.000000" stroke="none" 
	d="
M47.948509,189.158844 
	C38.430428,167.061127 29.028013,145.328217 19.679071,123.718918 
	C20.189163,123.314888 20.294577,123.158440 20.412319,123.148529 
	C29.487837,122.385002 29.489143,122.385345 33.064384,130.646027 
	C48.419235,166.123779 63.770321,201.603134 79.136269,237.076080 
	C79.915367,238.874649 80.820084,240.618835 82.096588,243.288101 
	C85.193192,236.315491 88.007965,230.121536 90.706299,223.877274 
	C104.133705,192.804611 117.531349,161.719101 130.937424,130.637238 
	C134.481628,122.420044 134.478333,122.418625 144.569260,123.334999 
	C123.840218,171.403061 103.183014,219.304550 82.070847,268.261047 
	C70.479401,241.422791 59.271790,215.473236 47.948509,189.158844 
z"/>
<path fill="#070707" opacity="1.000000" stroke="none" 
	d="
M505.771729,220.866119 
	C500.374115,233.423096 494.907104,245.542465 490.013123,257.888977 
	C488.219299,262.414368 486.049469,264.846771 481.013275,263.846008 
	C479.893463,263.623505 478.691772,263.813385 476.957977,263.813385 
	C497.732269,215.395798 518.376831,167.280685 539.334717,118.435181 
	C560.383545,167.236603 581.059021,215.172577 601.924377,263.548706 
	C598.106934,263.548706 594.877380,263.548706 591.399597,263.548706 
	C574.231445,223.730820 557.027527,183.830124 539.354492,142.841309 
	C527.961853,169.316772 516.945618,194.917648 505.771729,220.866119 
z"/>
<path fill="#0A0A0A" opacity="1.000000" stroke="none" 
	d="
M819.622803,230.000183 
	C819.622803,238.152893 819.622803,245.805618 819.622803,253.822128 
	C840.254883,253.822128 860.697754,253.822128 881.479370,253.822128 
	C881.479370,257.219879 881.479370,260.259186 881.479370,263.563446 
	C857.785461,263.563446 834.201721,263.563446 810.299683,263.563446 
	C810.299683,216.826538 810.299683,170.120010 810.299683,123.197556 
	C833.949341,123.197556 857.548523,123.197556 881.484497,123.197556 
	C881.484497,126.230476 881.484497,129.269623 881.484497,132.762939 
	C860.950134,132.762939 840.536926,132.762939 819.622864,132.762939 
	C819.622864,165.304810 819.622864,197.402496 819.622803,230.000183 
z"/>
<path fill="#070707" opacity="1.000000" stroke="none" 
	d="
M721.114014,239.102295 
	C700.741699,250.289642 676.532837,248.197495 660.197388,234.016907 
	C642.812683,218.925461 636.820618,195.088531 645.032532,173.690140 
	C652.557068,154.083145 673.319275,139.963181 694.145081,140.472000 
	C694.145081,143.549164 694.145081,146.634262 694.145081,149.707047 
	C663.363708,152.343231 651.206055,174.823151 651.044128,191.858154 
	C650.819702,215.479172 665.716003,232.772095 689.362244,236.660873 
	C707.892761,239.708313 729.268433,226.508286 734.961243,208.070526 
	C721.473022,208.070526 708.136475,208.070526 694.600037,208.070526 
	C694.600037,204.613205 694.600037,201.689438 694.600037,198.476303 
	C712.038879,198.476303 729.267029,198.476303 747.106262,198.476303 
	C744.938110,216.201080 736.308960,229.505661 721.114014,239.102295 
z"/>
<path fill="#040404" opacity="1.000000" stroke="none" 
	d="
M371.735016,195.999466 
	C371.735046,171.522537 371.735046,147.545639 371.735046,123.281769 
	C374.868042,123.281769 377.779053,123.281769 381.127014,123.281769 
	C381.127014,166.562820 381.127014,209.943756 381.127014,253.826828 
	C401.915558,253.826828 422.286346,253.826828 442.886353,253.826828 
	C442.886353,257.242920 442.886353,260.162628 442.886353,263.445953 
	C419.378784,263.445953 395.940216,263.445953 371.734985,263.445953 
	C371.734985,241.269943 371.734985,218.884720 371.735016,195.999466 
z"/>
<path fill="#040404" opacity="1.000000" stroke="none" 
	d="
M269.264984,159.000534 
	C269.264954,190.809662 269.264954,222.118759 269.264954,253.867996 
	C289.845581,253.867996 310.237579,253.867996 330.872864,253.867996 
	C330.872864,257.215973 330.872864,260.131195 330.872864,263.428284 
	C307.373474,263.428284 283.944763,263.428284 260.124878,263.428284 
	C260.124878,216.925110 260.124878,170.231308 260.124878,123.265297 
	C262.887909,123.265297 265.804413,123.265297 269.265015,123.265297 
	C269.265015,134.975693 269.265015,146.738098 269.264984,159.000534 
z"/>
<path fill="#070707" opacity="1.000000" stroke="none" 
	d="
M514.794189,224.660767 
	C522.958740,205.547256 530.992493,186.792664 539.478516,166.982407 
	C553.558960,199.662109 567.259338,231.459656 580.969299,263.279327 
	C580.310791,263.564301 580.051086,263.771912 579.787476,263.777008 
	C570.730103,263.951355 570.721802,263.952148 567.033936,255.402176 
	C557.973877,234.397598 548.922119,213.389465 539.494141,191.517731 
	C534.437805,203.274002 529.713501,214.282486 524.969055,225.282227 
	C520.306763,236.091660 515.351135,246.785873 511.076843,257.746155 
	C509.222076,262.502136 506.832825,264.853546 501.680725,263.840729 
	C500.720764,263.652008 499.691864,263.813751 497.918762,263.813751 
	C503.601196,250.648682 509.132294,237.834183 514.794189,224.660767 
z"/>
<path fill="#060606" opacity="1.000000" stroke="none" 
	d="
M119.907822,122.988602 
	C121.184738,122.988632 122.009918,122.988632 123.730125,122.988632 
	C109.869408,155.169907 96.216553,186.868591 82.048134,219.764282 
	C67.916107,187.068665 54.193325,155.319855 40.497215,123.632751 
	C41.093693,123.279892 41.216171,123.147972 41.347893,123.137985 
	C50.600414,122.436287 50.573189,122.448845 54.228058,130.943802 
	C62.813335,150.898438 71.426918,170.840897 80.030685,190.787582 
	C80.533028,191.952194 81.049843,193.110550 82.061073,195.412750 
	C92.676613,170.748505 102.861824,147.084076 113.232582,122.988564 
	C115.245903,122.988564 117.350998,122.988564 119.907822,122.988602 
z"/>
<path fill="#040404" opacity="1.000000" stroke="none" 
	d="
M390.878754,159.999954 
	C390.878754,147.526260 390.878754,135.552582 390.878754,123.286583 
	C393.994507,123.286583 396.912079,123.286583 400.333740,123.286583 
	C400.333740,160.307495 400.333740,197.367065 400.333740,234.836761 
	C414.745087,234.836761 428.665680,234.836761 442.792908,234.836761 
	C442.792908,238.181778 442.792908,241.118546 442.792908,244.329987 
	C425.665009,244.329987 408.584808,244.329987 390.878754,244.329987 
	C390.878754,216.328064 390.878754,188.414017 390.878754,159.999954 
z"/>
<path fill="#0E0E0E" opacity="1.000000" stroke="none" 
	d="
M304.004181,234.855194 
	C313.151154,234.855194 321.798676,234.855194 330.795105,234.855194 
	C330.795105,238.045471 330.795105,241.091370 330.795105,244.390152 
	C313.703491,244.390152 296.631165,244.390152 279.300415,244.390152 
	C279.300415,203.935013 279.300415,163.726822 279.300415,123.246063 
	C282.255127,123.246063 285.170654,123.246063 288.625244,123.246063 
	C288.625244,160.295914 288.625244,197.336777 288.625244,234.855194 
	C293.932373,234.855194 298.718567,234.855194 304.004181,234.855194 
z"/>
<path fill="#060606" opacity="1.000000" stroke="none" 
	d="
M402.951599,372.926056 
	C394.483551,382.007233 383.924591,384.976440 373.880432,381.117859 
	C363.313629,377.058502 356.949005,369.380157 356.091370,358.057281 
	C355.204315,346.346100 360.239380,337.406311 370.809387,332.000946 
	C381.243286,326.665161 395.159271,329.506073 402.665924,338.259552 
	C411.137360,348.138062 411.336090,361.346680 402.951599,372.926056 
M371.876709,366.606445 
	C377.308960,371.716278 384.957306,372.702728 390.524994,369.011627 
	C396.313904,365.173859 398.858887,357.585052 396.562164,351.009552 
	C394.045654,343.804779 387.982208,340.172821 380.226532,340.946320 
	C369.024963,342.063446 363.544769,357.462463 371.876709,366.606445 
z"/>
<path fill="#050505" opacity="1.000000" stroke="none" 
	d="
M293.876587,357.999939 
	C293.876587,348.525085 293.876587,339.550201 293.876587,330.283936 
	C297.817352,330.283936 301.565338,330.283936 305.857605,330.283936 
	C305.857605,336.734283 305.857605,343.286774 305.857605,350.001709 
	C312.988129,350.001709 319.581787,350.001709 326.573730,350.001709 
	C326.573730,343.410400 326.573730,336.991730 326.573730,330.286285 
	C330.530884,330.286285 334.107452,330.286285 338.042786,330.286285 
	C338.042786,347.366943 338.042786,364.558472 338.042786,381.875305 
	C334.303741,381.875305 330.661652,381.875305 326.465881,381.875305 
	C326.465881,375.196960 326.465881,368.635437 326.465881,361.848877 
	C319.476227,361.848877 313.031952,361.848877 306.125366,361.848877 
	C306.125366,368.286926 306.125366,374.863983 306.125366,381.719391 
	C301.939209,381.719391 298.199097,381.719391 293.876587,381.719391 
	C293.876587,374.015930 293.876587,366.257935 293.876587,357.999939 
z"/>
<path fill="#0A0A0A" opacity="1.000000" stroke="none" 
	d="
M193.019150,190.000000 
	C193.019150,214.779770 193.019150,239.059540 193.019150,263.579926 
	C189.711700,263.579926 186.807861,263.579926 183.539963,263.579926 
	C183.539963,216.729340 183.539963,170.057281 183.539963,123.182755 
	C186.629807,123.182755 189.559494,123.182755 193.019150,123.182755 
	C193.019150,145.314606 193.019150,167.407303 193.019150,190.000000 
z"/>
<path fill="#0D0D0D" opacity="1.000000" stroke="none" 
	d="
M881.072876,243.962708 
	C863.713989,244.104980 846.776367,244.104980 829.504395,244.104980 
	C829.504395,229.135757 829.504395,214.076035 829.504395,198.592194 
	C846.619507,198.592194 863.830139,198.592194 881.436401,198.592194 
	C881.436401,201.264648 881.436401,204.165833 881.436401,207.592834 
	C867.614014,207.592834 853.568542,207.592834 839.276855,207.592834 
	C839.276855,216.685425 839.276855,225.262604 839.276855,234.413940 
	C853.369019,234.413940 867.403320,234.413940 881.494141,234.413940 
	C881.494141,237.929886 881.494141,240.875168 881.072876,243.962708 
z"/>
<path fill="#0C0C0C" opacity="1.000000" stroke="none" 
	d="
M872.953003,152.139481 
	C861.501099,152.139481 850.543579,152.139481 839.305176,152.139481 
	C839.305176,161.155426 839.305176,169.867508 839.305176,178.906891 
	C853.340576,178.906891 867.265930,178.906891 881.506714,178.906891 
	C881.506714,182.124161 881.506714,185.028122 881.506714,188.381683 
	C864.299683,188.381683 847.079773,188.381683 829.515259,188.381683 
	C829.515259,173.351913 829.515259,158.280060 829.515259,142.787888 
	C846.742981,142.787888 864.084656,142.787888 881.627441,142.787888 
	C881.627441,145.786301 881.627441,148.572220 881.627441,152.139481 
	C878.937378,152.139481 876.192383,152.139481 872.953003,152.139481 
z"/>
<path fill="#050505" opacity="1.000000" stroke="none" 
	d="
M501.944275,329.990814 
	C504.556885,329.990814 506.675842,329.990814 508.874390,329.990814 
	C508.874390,334.020325 508.874390,337.593140 508.874390,341.648499 
	C502.054352,341.648499 495.468414,341.648499 488.649780,341.648499 
	C488.649780,344.697266 488.649780,347.261688 488.649780,350.348389 
	C493.910492,350.348389 498.990448,350.348389 504.328827,350.348389 
	C504.328827,354.280243 504.328827,357.699646 504.328827,361.616028 
	C499.227234,361.616028 494.157318,361.616028 488.749390,361.616028 
	C488.749390,364.810486 488.749390,367.529388 488.749390,370.689819 
	C495.300323,370.689819 501.883331,370.689819 508.733276,370.689819 
	C508.733276,374.522827 508.733276,377.946381 508.733276,381.692535 
	C498.297577,381.692535 487.728760,381.692535 476.943481,381.692535 
	C476.943481,364.675140 476.943481,347.592224 476.943481,329.990814 
	C485.242981,329.990814 493.346802,329.990814 501.944275,329.990814 
z"/>
<path fill="#010101" opacity="1.000000" stroke="none" 
	d="
M202.745728,198.999847 
	C202.745728,173.545532 202.745728,148.591217 202.745728,123.318527 
	C205.750519,123.318527 208.648178,123.318527 211.836273,123.318527 
	C211.836273,169.920731 211.836273,216.579132 211.836273,263.516846 
	C209.042175,263.516846 206.288361,263.516846 202.745743,263.516846 
	C202.745743,242.231567 202.745743,220.865707 202.745728,198.999847 
z"/>
<path fill="#070707" opacity="1.000000" stroke="none" 
	d="
M586.667725,343.106812 
	C587.401245,345.038635 587.991760,347.100067 589.355591,348.042603 
	C592.609558,350.291382 596.413757,351.745483 599.661194,354.002014 
	C606.375366,358.667511 608.699951,366.230988 605.965820,373.241913 
	C603.403198,379.813171 596.377380,383.711670 588.463928,382.614990 
	C581.667908,381.673218 575.545105,379.368103 572.075317,372.457336 
	C574.841858,370.189758 577.643921,367.893005 580.251343,365.755859 
	C583.051941,367.557007 585.475159,369.912415 588.325500,370.678589 
	C590.347229,371.222046 592.945923,369.619232 595.287048,368.974396 
	C594.148682,367.049744 593.436157,364.547058 591.779236,363.326172 
	C588.751648,361.095306 584.959656,359.919830 581.855530,357.771057 
	C575.775146,353.561890 573.419800,347.442291 575.130676,340.326385 
	C576.570557,334.337067 580.888794,330.765564 586.987000,329.599060 
	C594.088501,328.240570 599.965332,330.381042 605.153931,336.145142 
	C602.228943,338.759979 599.544006,341.160217 596.679321,343.721100 
	C593.845276,341.608459 590.749512,338.337189 586.667725,343.106812 
z"/>
<path fill="#080808" opacity="1.000000" stroke="none" 
	d="
M447.817413,356.002808 
	C447.817413,364.780396 447.817413,373.058868 447.817413,381.574280 
	C443.745667,381.574280 440.153900,381.574280 435.984009,381.574280 
	C435.984009,368.363037 435.984009,355.152527 435.984009,341.618683 
	C431.634064,341.618683 427.852905,341.618683 423.639099,341.618683 
	C423.639099,337.740509 423.639099,334.188934 423.639099,330.245850 
	C435.638153,330.245850 447.652679,330.245850 459.901489,330.245850 
	C459.901489,333.828186 459.901489,337.423065 459.901489,341.386292 
	C456.067108,341.386292 452.293274,341.386292 447.817413,341.386292 
	C447.817413,346.316406 447.817413,350.910065 447.817413,356.002808 
z"/>
<path fill="#060606" opacity="1.000000" stroke="none" 
	d="
M539.011108,365.899841 
	C539.011169,367.516144 539.011169,368.642914 539.011169,370.094788 
	C545.824890,370.094788 552.258240,370.094788 558.978943,370.094788 
	C558.978943,374.175476 558.978943,377.930969 558.978943,381.796844 
	C548.483276,381.796844 538.068176,381.796844 527.421509,381.796844 
	C527.421509,364.536163 527.421509,347.489563 527.421509,330.215790 
	C531.217407,330.215790 534.815430,330.215790 539.011108,330.215790 
	C539.011108,341.914673 539.011108,353.662445 539.011108,365.899841 
z"/>
<path fill="#FDFDFD" opacity="1.000000" stroke="none" 
	d="
M371.613403,366.334473 
	C363.544769,357.462463 369.024963,342.063446 380.226532,340.946320 
	C387.982208,340.172821 394.045654,343.804779 396.562164,351.009552 
	C398.858887,357.585052 396.313904,365.173859 390.524994,369.011627 
	C384.957306,372.702728 377.308960,371.716278 371.613403,366.334473 
z"/>
</svg>